<svg width="300" height="300" xmlns="http://www.w3.org/2000/svg" class="iconLeft">
 <!---->
 <defs>
  <!---->
  <linearGradient y2="0%" x2="100%" y1="0%" x1="0%" id="a7803a87-5f07-4580-a793-1bb76caea369" gradientTransform="rotate(25)">
   <stop stop-color="#E90DDA" offset="0%"/>
   <stop stop-color="#15CFF1" offset="100%"/>
  </linearGradient>
 </defs>
 <defs>
  <!---->
 </defs>
 <!---->
 <g>
  <title>Layer 1</title>
  <g transform="matrix(1.19518 0 0 1.19518 75.4404 137.457)" fill="#000000" id="43dc487c-9651-494e-81d2-5f8e0174c0a5"/>
  <g transform="matrix(6.45886 0 0 6.4554 -80.9604 170.194)" fill="url(#a7803a87-5f07-4580-a793-1bb76caea369)" id="4f5f8163-3f15-4fda-a3e4-ea8040ea3247">
   <path id="svg_3" d="m58.74596,-1.93377c-0.19,0.143 -0.446,0.236 -0.724,0.249a1.07,1.07 0 0 1 -0.701,-0.199a0.66,0.66 0 0 1 -0.275,-0.545a0.74,0.74 0 0 1 0.305,-0.559c0.185,-0.141 0.437,-0.228 0.713,-0.228c0.277,0 0.531,0.085 0.713,0.22c0.019,0.014 0.033,0.03 0.05,0.045a8.37,8.37 0 0 0 0.004,-0.227c0,-0.502 -0.019,-1 -0.05,-1.495c-0.016,0.012 -0.026,0.025 -0.043,0.038a1.12,1.12 0 0 1 -0.7,0.194a1.258,1.258 0 0 1 -0.722,-0.253a0.793,0.793 0 0 1 -0.326,-0.564a0.612,0.612 0 0 1 0.253,-0.536c0.169,-0.128 0.411,-0.196 0.687,-0.176c0.277,0.021 0.537,0.125 0.73,0.272c0.016,0.01 0.023,0.022 0.035,0.033a20.272,20.272 0 0 0 -0.213,-1.514c0,0.002 -0.002,0.003 -0.004,0.004c-0.158,0.114 -0.396,0.175 -0.672,0.145a1.382,1.382 0 0 1 -0.732,-0.3c-0.2,-0.159 -0.338,-0.369 -0.372,-0.586a0.529,0.529 0 0 1 0.202,-0.516c0.154,-0.117 0.384,-0.17 0.656,-0.129c0.259,0.037 0.506,0.151 0.705,0.304a23.536,23.536 0 0 0 -0.328,-1.294a0.913,0.913 0 0 1 -0.569,0.06a1.616,1.616 0 0 1 -0.739,-0.345c-0.205,-0.173 -0.357,-0.391 -0.408,-0.606s0.01,-0.393 0.146,-0.498c0.139,-0.104 0.355,-0.139 0.62,-0.079c0.192,0.042 0.386,0.13 0.559,0.24a21.468,21.468 0 0 0 -0.368,-0.986a0.953,0.953 0 0 1 -0.412,-0.02a1.805,1.805 0 0 1 -0.737,-0.391c-0.214,-0.184 -0.376,-0.404 -0.442,-0.622c-0.066,-0.216 -0.023,-0.387 0.096,-0.479c0.123,-0.094 0.324,-0.112 0.58,-0.038c0.094,0.028 0.191,0.07 0.286,0.119a30.656,30.656 0 0 0 -0.343,-0.678a1.219,1.219 0 0 1 -0.164,-0.04a2.062,2.062 0 0 1 -0.732,-0.429c-0.215,-0.193 -0.389,-0.424 -0.47,-0.642c-0.081,-0.217 -0.06,-0.379 0.046,-0.463c0.082,-0.064 0.217,-0.082 0.389,-0.042c-0.127,-0.201 -0.256,-0.4 -0.389,-0.597a2.755,2.755 0 0 1 -0.392,-0.298a2.115,2.115 0 0 1 -0.498,-0.655c-0.065,-0.146 -0.079,-0.263 -0.06,-0.346a22.848,22.848 0 0 0 -3.469,-3.565a0.89,0.89 0 0 1 -0.24,-0.07a2.26,2.26 0 0 1 -0.664,-0.499a2.49,2.49 0 0 1 -0.28,-0.349a23.09,23.09 0 0 0 -1.819,-1.189c0.025,0.053 0.051,0.107 0.068,0.161c0.086,0.246 0.076,0.434 -0.014,0.54c-0.09,0.107 -0.258,0.137 -0.478,0.06s-0.45,-0.245 -0.642,-0.46a1.975,1.975 0 0 1 -0.422,-0.724a0.857,0.857 0 0 1 -0.033,-0.396a22.075,22.075 0 0 0 -1.91,-0.836l0,0.001c0.181,0.211 0.326,0.472 0.388,0.729c0.063,0.259 0.033,0.468 -0.071,0.599s-0.278,0.184 -0.5,0.128c-0.221,-0.055 -0.441,-0.208 -0.617,-0.414s-0.312,-0.467 -0.362,-0.73c-0.052,-0.263 -0.013,-0.48 0.087,-0.615c0.02,-0.024 0.04,-0.041 0.062,-0.061a22.983,22.983 0 0 0 -2.299,-0.629c0.09,0.064 0.176,0.145 0.254,0.239c0.164,0.201 0.287,0.461 0.326,0.729c0.041,0.269 -0.01,0.495 -0.129,0.646a0.54,0.54 0 0 1 -0.523,0.195c-0.221,-0.033 -0.432,-0.171 -0.594,-0.365a1.373,1.373 0 0 1 -0.306,-0.726c-0.028,-0.271 0.03,-0.506 0.147,-0.662a0.51,0.51 0 0 1 0.236,-0.177a23.678,23.678 0 0 0 -2.652,-0.352a0.82,0.82 0 0 1 0.443,0.306c0.149,0.19 0.252,0.443 0.268,0.718a0.985,0.985 0 0 1 -0.188,0.684a0.645,0.645 0 0 1 -0.547,0.258a0.796,0.796 0 0 1 -0.57,-0.313a1.191,1.191 0 0 1 -0.246,-0.711c-0.006,-0.272 0.076,-0.52 0.209,-0.692a0.63,0.63 0 0 1 0.431,-0.259a23.152,23.152 0 0 0 -5.778,0.345a0.49,0.49 0 0 1 0.327,0.2c0.118,0.155 0.178,0.39 0.148,0.661a1.386,1.386 0 0 1 -0.305,0.725c-0.162,0.197 -0.375,0.334 -0.596,0.367c-0.221,0.031 -0.406,-0.043 -0.521,-0.195c-0.121,-0.15 -0.172,-0.377 -0.131,-0.646c0.041,-0.267 0.164,-0.525 0.327,-0.729a1.18,1.18 0 0 1 0.378,-0.312a23.38,23.38 0 0 0 -2.456,0.65c0.049,0.026 0.094,0.06 0.131,0.107c0.102,0.135 0.14,0.354 0.086,0.615a1.62,1.62 0 0 1 -0.361,0.73c-0.176,0.206 -0.396,0.36 -0.617,0.414c-0.221,0.056 -0.396,0.003 -0.5,-0.128s-0.136,-0.34 -0.072,-0.599a1.783,1.783 0 0 1 0.514,-0.86c-0.705,0.257 -1.394,0.547 -2.062,0.869c0.052,0.115 0.056,0.284 -0.008,0.493a1.97,1.97 0 0 1 -0.421,0.725c-0.192,0.214 -0.422,0.382 -0.643,0.459s-0.388,0.049 -0.477,-0.06c-0.09,-0.106 -0.102,-0.294 -0.016,-0.54c0.041,-0.113 0.104,-0.233 0.174,-0.352a23.96,23.96 0 0 0 -1.771,1.115a2.484,2.484 0 0 1 -0.433,0.612a2.234,2.234 0 0 1 -0.664,0.499c-0.197,0.09 -0.34,0.095 -0.423,0.036a23.119,23.119 0 0 0 -3.403,3.47c0.142,0.052 0.173,0.219 0.058,0.477a2.11,2.11 0 0 1 -0.496,0.655a2.477,2.477 0 0 1 -0.719,0.468l-0.008,0.001c-0.115,0.177 -0.23,0.354 -0.342,0.531c0.046,-0.021 0.094,-0.044 0.141,-0.062c0.244,-0.093 0.43,-0.087 0.534,-0.003s0.13,0.246 0.046,0.463c-0.08,0.218 -0.253,0.447 -0.47,0.642c-0.218,0.191 -0.479,0.35 -0.731,0.429a0.895,0.895 0 0 1 -0.389,0.046c-0.148,0.283 -0.291,0.57 -0.429,0.86c0.187,-0.138 0.395,-0.248 0.597,-0.309c0.258,-0.074 0.458,-0.056 0.579,0.038c0.122,0.095 0.163,0.265 0.097,0.479c-0.066,0.218 -0.229,0.438 -0.441,0.622a1.845,1.845 0 0 1 -0.738,0.391c-0.262,0.065 -0.475,0.038 -0.6,-0.054l-0.004,-0.002c-0.174,0.43 -0.336,0.863 -0.484,1.307a1.846,1.846 0 0 1 0.867,-0.485c0.264,-0.06 0.479,-0.024 0.617,0.079c0.139,0.105 0.199,0.282 0.148,0.498c-0.05,0.218 -0.204,0.435 -0.41,0.606a1.622,1.622 0 0 1 -0.738,0.345c-0.271,0.051 -0.495,0.01 -0.639,-0.094a0.407,0.407 0 0 1 -0.107,-0.116a23.653,23.653 0 0 0 -0.437,1.73c0.065,-0.095 0.151,-0.184 0.251,-0.264c0.204,-0.16 0.469,-0.282 0.74,-0.323c0.271,-0.04 0.501,0.012 0.654,0.129a0.525,0.525 0 0 1 0.201,0.516c-0.033,0.217 -0.17,0.427 -0.371,0.586a1.398,1.398 0 0 1 -0.732,0.3c-0.275,0.03 -0.514,-0.028 -0.673,-0.145a0.505,0.505 0 0 1 -0.183,-0.237a22.442,22.442 0 0 0 -0.287,2.074a0.87,0.87 0 0 1 0.289,-0.36c0.193,-0.148 0.453,-0.253 0.729,-0.272a1.01,1.01 0 0 1 0.687,0.176c0.17,0.131 0.268,0.319 0.254,0.536a0.801,0.801 0 0 1 -0.325,0.564a1.26,1.26 0 0 1 -0.722,0.253a1.129,1.129 0 0 1 -0.703,-0.194a0.64,0.64 0 0 1 -0.241,-0.343a23.322,23.322 0 0 0 -0.071,1.8c0,0.186 0.005,0.367 0.01,0.552a0.667,0.667 0 0 1 0.268,-0.37c0.181,-0.135 0.435,-0.22 0.712,-0.22c0.278,0 0.528,0.087 0.714,0.228a0.734,0.734 0 0 1 0.303,0.559c0.006,0.217 -0.1,0.41 -0.275,0.545a1.069,1.069 0 0 1 -0.7,0.199a1.31,1.31 0 0 1 -0.722,-0.249a0.777,0.777 0 0 1 -0.287,-0.378c0.029,0.842 0.105,1.668 0.224,2.482a0.54,0.54 0 0 1 0.212,-0.303c0.165,-0.12 0.405,-0.187 0.684,-0.164c0.274,0.021 0.535,0.128 0.729,0.284c0.198,0.154 0.328,0.36 0.354,0.577a0.551,0.551 0 0 1 -0.219,0.524c-0.158,0.122 -0.394,0.177 -0.667,0.143a1.487,1.487 0 0 1 -0.737,-0.305a1.072,1.072 0 0 1 -0.291,-0.339c0.138,0.823 0.312,1.633 0.535,2.424a0.379,0.379 0 0 1 0.129,-0.159c0.146,-0.104 0.373,-0.146 0.644,-0.103s0.532,0.17 0.737,0.34c0.207,0.17 0.358,0.387 0.406,0.604c0.047,0.217 -0.016,0.395 -0.156,0.5s-0.358,0.143 -0.625,0.088a1.807,1.807 0 0 1 -0.739,-0.365a1.515,1.515 0 0 1 -0.181,-0.176c0.242,0.771 0.522,1.522 0.84,2.258c0.125,-0.081 0.328,-0.103 0.576,-0.035c0.261,0.068 0.522,0.217 0.736,0.401c0.215,0.186 0.381,0.41 0.45,0.628c0.071,0.218 0.035,0.383 -0.081,0.475c-0.118,0.093 -0.314,0.107 -0.566,0.027a2.083,2.083 0 0 1 -0.543,-0.281c0.395,0.781 0.832,1.535 1.31,2.263c0.021,0.007 0.041,0.012 0.063,0.021c0.241,0.095 0.498,0.265 0.719,0.468c0.219,0.202 0.399,0.438 0.496,0.653c0.125,0.282 0.074,0.459 -0.104,0.488a23.023,23.023 0 0 0 3.412,3.489c0.067,-0.093 0.228,-0.1 0.46,0.004c0.22,0.1 0.458,0.281 0.665,0.499c0.206,0.217 0.38,0.471 0.478,0.707c0.002,0.002 0.002,0.003 0.002,0.005c0.58,0.4 1.18,0.775 1.795,1.122a2.036,2.036 0 0 1 -0.244,-0.458c-0.086,-0.245 -0.074,-0.433 0.016,-0.54c0.089,-0.106 0.256,-0.136 0.477,-0.058c0.221,0.076 0.45,0.244 0.643,0.459c0.191,0.213 0.346,0.472 0.421,0.725c0.071,0.241 0.058,0.433 -0.021,0.546c0.72,0.348 1.461,0.657 2.217,0.93a1.69,1.69 0 0 1 -0.252,-0.243a1.846,1.846 0 0 1 -0.389,-0.729c-0.062,-0.259 -0.031,-0.468 0.072,-0.6c0.104,-0.129 0.279,-0.183 0.5,-0.127c0.221,0.055 0.441,0.208 0.617,0.414c0.179,0.207 0.311,0.466 0.361,0.729c0.054,0.264 0.016,0.48 -0.086,0.616a0.392,0.392 0 0 1 -0.229,0.144a23.188,23.188 0 0 0 11.773,0.691a0.492,0.492 0 0 1 -0.455,-0.202c-0.116,-0.156 -0.176,-0.39 -0.146,-0.662c0.027,-0.271 0.143,-0.527 0.305,-0.725c0.162,-0.196 0.373,-0.333 0.594,-0.366s0.404,0.044 0.524,0.196c0.119,0.15 0.169,0.377 0.13,0.646a1.556,1.556 0 0 1 -0.328,0.729a1.052,1.052 0 0 1 -0.496,0.358a23.513,23.513 0 0 0 2.606,-0.703a0.398,0.398 0 0 1 -0.127,-0.104c-0.101,-0.136 -0.14,-0.354 -0.087,-0.617a1.68,1.68 0 0 1 0.361,-0.729c0.178,-0.206 0.397,-0.359 0.619,-0.414c0.221,-0.056 0.396,-0.003 0.498,0.127c0.105,0.132 0.138,0.341 0.072,0.6a1.793,1.793 0 0 1 -0.487,0.833a23.689,23.689 0 0 0 2.02,-0.878c-0.038,-0.113 -0.032,-0.271 0.023,-0.458c0.074,-0.253 0.229,-0.512 0.42,-0.725a1.62,1.62 0 0 1 0.643,-0.459c0.221,-0.078 0.387,-0.051 0.479,0.058c0.088,0.107 0.099,0.295 0.013,0.54a1.97,1.97 0 0 1 -0.122,0.262a23.253,23.253 0 0 0 1.799,-1.168a2.88,2.88 0 0 1 0.354,-0.47c0.207,-0.218 0.445,-0.399 0.666,-0.499a0.618,0.618 0 0 1 0.319,-0.07a23.294,23.294 0 0 0 3.406,-3.521c-0.045,-0.084 -0.036,-0.217 0.041,-0.392c0.097,-0.216 0.276,-0.451 0.498,-0.653c0.142,-0.133 0.301,-0.247 0.462,-0.341a22.34,22.34 0 0 0 1.312,-2.222a2.156,2.156 0 0 1 -0.228,0.094c-0.254,0.08 -0.448,0.064 -0.567,-0.027c-0.117,-0.092 -0.152,-0.257 -0.082,-0.475c0.07,-0.217 0.236,-0.442 0.451,-0.628a1.89,1.89 0 0 1 0.735,-0.401a0.967,0.967 0 0 1 0.382,-0.03c0.271,-0.628 0.514,-1.27 0.729,-1.925a1.692,1.692 0 0 1 -0.612,0.273c-0.267,0.055 -0.485,0.019 -0.625,-0.088c-0.14,-0.105 -0.204,-0.283 -0.156,-0.5c0.05,-0.217 0.198,-0.434 0.406,-0.604a1.58,1.58 0 0 1 0.739,-0.34c0.244,-0.041 0.455,-0.006 0.6,0.081a24,24 0 0 0 0.432,-1.918l-0.018,0.014c-0.2,0.156 -0.461,0.272 -0.736,0.305c-0.273,0.034 -0.509,-0.021 -0.668,-0.143a0.559,0.559 0 0 1 -0.218,-0.524c0.024,-0.217 0.158,-0.423 0.354,-0.577c0.197,-0.156 0.455,-0.264 0.729,-0.284c0.276,-0.021 0.519,0.044 0.683,0.164c0.014,0.007 0.02,0.017 0.028,0.023c0.083,-0.615 0.142,-1.24 0.175,-1.874c-0.02,0.016 -0.036,0.034 -0.055,0.048zm-32.795,-15.306c0.043,-0.259 0.187,-0.51 0.376,-0.708s0.427,-0.345 0.673,-0.386c0.244,-0.042 0.451,0.028 0.587,0.177c0.137,0.146 0.204,0.371 0.17,0.635a1.289,1.289 0 0 1 -0.354,0.711a1.207,1.207 0 0 1 -0.685,0.369c-0.252,0.036 -0.467,-0.034 -0.604,-0.179c-0.142,-0.144 -0.205,-0.362 -0.163,-0.619zm-0.392,2.606c0.035,-0.261 0.174,-0.509 0.363,-0.701c0.191,-0.194 0.438,-0.331 0.693,-0.366c0.257,-0.034 0.475,0.042 0.622,0.194c0.147,0.15 0.226,0.379 0.196,0.642c-0.028,0.266 -0.16,0.514 -0.35,0.704c-0.188,0.19 -0.438,0.322 -0.699,0.352c-0.261,0.028 -0.488,-0.048 -0.638,-0.196a0.736,0.736 0 0 1 -0.187,-0.629zm0.02,2.115c0.191,-0.188 0.441,-0.317 0.707,-0.346a0.804,0.804 0 0 1 0.652,0.213c0.16,0.158 0.246,0.389 0.227,0.65c-0.021,0.265 -0.15,0.513 -0.339,0.697a1.15,1.15 0 0 1 -0.714,0.331a0.843,0.843 0 0 1 -0.664,-0.219a0.764,0.764 0 0 1 -0.223,-0.637c0.029,-0.256 0.163,-0.501 0.354,-0.689zm1.053,4.279c-0.188,0.181 -0.441,0.299 -0.717,0.312s-0.52,-0.079 -0.689,-0.24a0.795,0.795 0 0 1 -0.25,-0.646c0.018,-0.259 0.145,-0.501 0.334,-0.683c0.19,-0.184 0.445,-0.306 0.718,-0.323a0.874,0.874 0 0 1 0.68,0.234a0.827,0.827 0 0 1 0.25,0.658a1.052,1.052 0 0 1 -0.326,0.688zm0.202,2.541a0.967,0.967 0 0 1 -0.31,0.681a1.057,1.057 0 0 1 -1.422,0.026a0.869,0.869 0 0 1 -0.279,-0.657a0.975,0.975 0 0 1 0.316,-0.672c0.187,-0.177 0.441,-0.292 0.717,-0.3a0.96,0.96 0 0 1 0.701,0.255a0.881,0.881 0 0 1 0.277,0.667zm-3.894,-13.127c0.068,-0.245 0.228,-0.495 0.429,-0.702c0.2,-0.207 0.438,-0.371 0.672,-0.438s0.418,-0.024 0.531,0.098c0.112,0.124 0.151,0.328 0.093,0.58s-0.208,0.505 -0.404,0.706a1.478,1.478 0 0 1 -0.682,0.417c-0.243,0.062 -0.438,0.018 -0.557,-0.103c-0.113,-0.119 -0.151,-0.313 -0.082,-0.558zm-0.599,2.32a1.53,1.53 0 0 1 0.411,-0.691c0.201,-0.2 0.447,-0.354 0.692,-0.413c0.244,-0.059 0.445,-0.009 0.57,0.12c0.125,0.13 0.178,0.337 0.129,0.59c-0.051,0.252 -0.197,0.5 -0.395,0.697a1.43,1.43 0 0 1 -0.699,0.395c-0.254,0.051 -0.462,-0.002 -0.591,-0.128c-0.128,-0.127 -0.178,-0.326 -0.117,-0.57zm-0.138,1.788c0.199,-0.193 0.451,-0.338 0.707,-0.388c0.255,-0.048 0.468,0.013 0.606,0.146c0.138,0.135 0.203,0.347 0.164,0.6a1.296,1.296 0 0 1 -0.381,0.688a1.361,1.361 0 0 1 -0.712,0.368c-0.263,0.042 -0.483,-0.022 -0.625,-0.153c-0.143,-0.133 -0.206,-0.335 -0.159,-0.581c0.047,-0.243 0.199,-0.486 0.4,-0.68zm-1.153,11.764c0.18,-0.161 0.435,-0.262 0.711,-0.262c0.278,0 0.53,0.101 0.715,0.266a0.888,0.888 0 0 1 0.299,0.646a0.847,0.847 0 0 1 -0.281,0.642c-0.18,0.16 -0.43,0.256 -0.706,0.248a1.123,1.123 0 0 1 -0.718,-0.281a0.87,0.87 0 0 1 -0.311,-0.634a0.811,0.811 0 0 1 0.291,-0.625zm-0.25,-2.568a0.934,0.934 0 0 1 0.324,-0.641a1.17,1.17 0 0 1 0.725,-0.295a0.959,0.959 0 0 1 0.694,0.23a0.819,0.819 0 0 1 0.269,0.637a0.942,0.942 0 0 1 -0.313,0.651c-0.188,0.169 -0.44,0.274 -0.72,0.28a1.022,1.022 0 0 1 -0.703,-0.245a0.757,0.757 0 0 1 -0.276,-0.617zm0.363,5.968a0.978,0.978 0 0 1 0.693,-0.227c0.275,0.017 0.531,0.127 0.722,0.3c0.19,0.177 0.315,0.41 0.332,0.662a0.766,0.766 0 0 1 -0.245,0.627a0.906,0.906 0 0 1 -0.684,0.213a1.254,1.254 0 0 1 -0.723,-0.315a1,1 0 0 1 -0.343,-0.648a0.73,0.73 0 0 1 0.248,-0.612zm1.484,-8.461a1.193,1.193 0 0 1 -0.725,0.312a0.929,0.929 0 0 1 -0.683,-0.214a0.698,0.698 0 0 1 -0.235,-0.606a1.03,1.03 0 0 1 0.354,-0.653c0.194,-0.179 0.45,-0.303 0.724,-0.328a0.86,0.86 0 0 1 0.671,0.204c0.164,0.148 0.255,0.369 0.234,0.621s-0.146,0.487 -0.34,0.664zm0.28,-2.926a1.262,1.262 0 0 1 -0.722,0.34c-0.271,0.029 -0.502,-0.042 -0.657,-0.183a0.654,0.654 0 0 1 -0.197,-0.592c0.037,-0.246 0.181,-0.483 0.379,-0.668c0.197,-0.188 0.453,-0.322 0.719,-0.359c0.265,-0.036 0.488,0.032 0.643,0.175a0.692,0.692 0 0 1 0.197,0.608a1.158,1.158 0 0 1 -0.362,0.679zm-2.627,-8.732c0.1,-0.229 0.281,-0.477 0.493,-0.691c0.211,-0.216 0.451,-0.4 0.675,-0.499c0.219,-0.099 0.381,-0.091 0.465,0.004c0.085,0.092 0.093,0.271 0.005,0.507a2.059,2.059 0 0 1 -0.467,0.697a2.038,2.038 0 0 1 -0.684,0.474c-0.23,0.089 -0.404,0.077 -0.494,-0.011c-0.088,-0.088 -0.093,-0.254 0.007,-0.481zm-0.807,1.974c0.087,-0.228 0.264,-0.469 0.477,-0.677c0.211,-0.209 0.459,-0.383 0.691,-0.471c0.232,-0.086 0.409,-0.069 0.51,0.031c0.1,0.102 0.124,0.283 0.047,0.52a1.828,1.828 0 0 1 -0.451,0.686a1.886,1.886 0 0 1 -0.701,0.445c-0.242,0.077 -0.432,0.056 -0.534,-0.04c-0.107,-0.096 -0.127,-0.267 -0.039,-0.494zm-0.764,2.153c0.072,-0.229 0.244,-0.465 0.455,-0.663a1.88,1.88 0 0 1 0.709,-0.438c0.246,-0.075 0.438,-0.047 0.554,0.062c0.114,0.107 0.153,0.295 0.087,0.531a1.562,1.562 0 0 1 -0.432,0.673a1.718,1.718 0 0 1 -0.717,0.415c-0.252,0.064 -0.453,0.032 -0.574,-0.071c-0.119,-0.105 -0.156,-0.281 -0.082,-0.509zm-0.675,2.291c0.061,-0.229 0.221,-0.458 0.431,-0.649c0.21,-0.189 0.467,-0.342 0.723,-0.403c0.256,-0.062 0.462,-0.021 0.593,0.094c0.131,0.117 0.186,0.31 0.131,0.546c-0.055,0.237 -0.207,0.473 -0.412,0.66s-0.461,0.328 -0.726,0.381c-0.261,0.052 -0.478,0.008 -0.612,-0.105c-0.137,-0.117 -0.189,-0.297 -0.128,-0.524zm-0.577,2.469c0.047,-0.229 0.199,-0.452 0.404,-0.635c0.205,-0.181 0.465,-0.318 0.729,-0.367c0.264,-0.048 0.486,0.006 0.63,0.132c0.146,0.124 0.213,0.321 0.174,0.56a1.163,1.163 0 0 1 -0.386,0.646a1.43,1.43 0 0 1 -0.73,0.345c-0.269,0.039 -0.496,-0.02 -0.646,-0.142a0.535,0.535 0 0 1 -0.175,-0.539zm-0.435,2.646c0.028,-0.228 0.169,-0.445 0.37,-0.617c0.199,-0.172 0.459,-0.295 0.729,-0.327c0.272,-0.033 0.504,0.033 0.664,0.168s0.244,0.337 0.219,0.574c-0.026,0.235 -0.16,0.46 -0.355,0.63a1.29,1.29 0 0 1 -0.729,0.31c-0.274,0.021 -0.514,-0.05 -0.678,-0.182a0.598,0.598 0 0 1 -0.22,-0.556zm0.071,2.186c0.19,-0.16 0.448,-0.27 0.726,-0.287a0.972,0.972 0 0 1 0.692,0.207a0.719,0.719 0 0 1 0.26,0.591a0.878,0.878 0 0 1 -0.319,0.615a1.168,1.168 0 0 1 -0.721,0.269a1.046,1.046 0 0 1 -0.701,-0.224a0.681,0.681 0 0 1 -0.269,-0.572a0.863,0.863 0 0 1 0.332,-0.599zm-0.384,3.561a0.72,0.72 0 0 1 0.287,-0.579a1.13,1.13 0 0 1 0.711,-0.242c0.279,0 0.531,0.093 0.713,0.247c0.186,0.154 0.3,0.373 0.305,0.607a0.77,0.77 0 0 1 -0.279,0.599a1.052,1.052 0 0 1 -0.703,0.227a1.186,1.186 0 0 1 -0.721,-0.267c-0.19,-0.157 -0.309,-0.364 -0.313,-0.592zm0.2,3.141a0.622,0.622 0 0 1 0.235,-0.562a0.973,0.973 0 0 1 0.687,-0.194c0.277,0.017 0.535,0.127 0.728,0.294a0.962,0.962 0 0 1 0.345,0.625a0.669,0.669 0 0 1 -0.232,0.581c-0.163,0.137 -0.399,0.207 -0.674,0.18a1.33,1.33 0 0 1 -0.729,-0.312c-0.202,-0.168 -0.337,-0.385 -0.36,-0.612zm0.88,3.91c-0.205,-0.183 -0.354,-0.405 -0.397,-0.632c-0.043,-0.228 0.028,-0.416 0.181,-0.54c0.148,-0.125 0.381,-0.185 0.65,-0.146c0.271,0.036 0.529,0.162 0.73,0.34s0.342,0.408 0.381,0.645s-0.031,0.437 -0.178,0.562c-0.147,0.126 -0.371,0.18 -0.637,0.135a1.576,1.576 0 0 1 -0.73,-0.364zm0.859,3.478c-0.211,-0.191 -0.374,-0.426 -0.438,-0.652c-0.063,-0.227 -0.016,-0.407 0.113,-0.519c0.133,-0.111 0.344,-0.153 0.603,-0.097c0.261,0.056 0.519,0.201 0.724,0.392c0.206,0.189 0.36,0.427 0.419,0.664c0.058,0.236 0.007,0.427 -0.118,0.541c-0.127,0.113 -0.33,0.15 -0.584,0.085a1.775,1.775 0 0 1 -0.719,-0.414zm2.503,4.262c-0.101,0.101 -0.277,0.118 -0.51,0.03a2.098,2.098 0 0 1 -0.691,-0.47c-0.213,-0.208 -0.391,-0.45 -0.477,-0.678c-0.088,-0.229 -0.068,-0.397 0.037,-0.493c0.104,-0.098 0.292,-0.117 0.533,-0.039c0.242,0.077 0.492,0.24 0.701,0.443c0.207,0.203 0.373,0.448 0.451,0.687c0.08,0.236 0.055,0.421 -0.044,0.52zm0.126,-7.808a0.665,0.665 0 0 1 0.203,-0.595c0.157,-0.143 0.39,-0.216 0.661,-0.188c0.27,0.028 0.527,0.154 0.723,0.337c0.193,0.185 0.327,0.422 0.358,0.677c0.028,0.251 -0.05,0.468 -0.203,0.61c-0.155,0.144 -0.382,0.214 -0.646,0.179a1.35,1.35 0 0 1 -0.719,-0.354a1.17,1.17 0 0 1 -0.377,-0.666zm1.05,4.407c-0.201,-0.195 -0.353,-0.438 -0.402,-0.684c-0.051,-0.244 0.01,-0.446 0.148,-0.576c0.141,-0.132 0.355,-0.19 0.615,-0.146c0.26,0.043 0.512,0.183 0.71,0.375c0.196,0.192 0.339,0.438 0.384,0.69c0.043,0.251 -0.02,0.463 -0.154,0.596c-0.135,0.135 -0.346,0.191 -0.598,0.14a1.45,1.45 0 0 1 -0.703,-0.395zm2.225,4.456c-0.113,0.123 -0.298,0.164 -0.531,0.098c-0.233,-0.068 -0.472,-0.231 -0.672,-0.438a1.746,1.746 0 0 1 -0.429,-0.704c-0.069,-0.244 -0.032,-0.438 0.082,-0.559c0.117,-0.118 0.312,-0.162 0.557,-0.102c0.242,0.062 0.486,0.215 0.682,0.417c0.196,0.203 0.346,0.454 0.404,0.708c0.059,0.252 0.019,0.458 -0.093,0.58zm-0.431,-33.781c-0.232,0.069 -0.412,0.034 -0.516,-0.078c-0.104,-0.113 -0.127,-0.304 -0.047,-0.549c0.075,-0.245 0.242,-0.498 0.438,-0.713c0.199,-0.213 0.431,-0.385 0.651,-0.461c0.22,-0.075 0.392,-0.042 0.489,0.075s0.128,0.318 0.061,0.571c-0.067,0.252 -0.22,0.507 -0.412,0.715c-0.197,0.209 -0.433,0.371 -0.664,0.44zm0.943,17.386c0.185,-0.168 0.435,-0.273 0.712,-0.273c0.279,0 0.532,0.105 0.713,0.278a0.94,0.94 0 0 1 0.301,0.676a0.907,0.907 0 0 1 -0.285,0.67a1.006,1.006 0 0 1 -0.709,0.267a1.076,1.076 0 0 1 -0.717,-0.288a0.93,0.93 0 0 1 -0.305,-0.666a0.893,0.893 0 0 1 0.29,-0.664zm0.085,3.583a0.966,0.966 0 0 1 0.695,-0.248c0.277,0.011 0.531,0.124 0.718,0.305c0.188,0.179 0.31,0.422 0.32,0.686a0.852,0.852 0 0 1 -0.261,0.66a0.898,0.898 0 0 1 -0.688,0.242a1.163,1.163 0 0 1 -0.718,-0.314a1.031,1.031 0 0 1 -0.329,-0.679a0.83,0.83 0 0 1 0.263,-0.652zm0.017,4.379a0.774,0.774 0 0 1 0.227,-0.638a0.868,0.868 0 0 1 0.67,-0.222c0.27,0.02 0.521,0.144 0.712,0.33c0.19,0.184 0.316,0.432 0.339,0.693a0.812,0.812 0 0 1 -0.229,0.651a0.81,0.81 0 0 1 -0.657,0.217a1.186,1.186 0 0 1 -0.708,-0.343a1.144,1.144 0 0 1 -0.354,-0.688zm0.475,3.931c-0.036,-0.26 0.037,-0.479 0.184,-0.624c0.147,-0.148 0.368,-0.227 0.631,-0.193c0.26,0.031 0.504,0.164 0.694,0.355c0.188,0.19 0.318,0.442 0.351,0.706c0.029,0.265 -0.045,0.489 -0.19,0.642a0.683,0.683 0 0 1 -0.61,0.188a1.234,1.234 0 0 1 -0.688,-0.371a1.278,1.278 0 0 1 -0.372,-0.703zm2.313,5.282c-0.123,0.144 -0.314,0.208 -0.549,0.159s-0.464,-0.2 -0.652,-0.402a1.522,1.522 0 0 1 -0.379,-0.719c-0.051,-0.258 0.002,-0.472 0.129,-0.609c0.125,-0.14 0.33,-0.203 0.572,-0.161c0.241,0.045 0.479,0.187 0.662,0.386c0.187,0.199 0.318,0.454 0.359,0.718c0.041,0.263 -0.014,0.484 -0.142,0.628zm0.143,-34.254c-0.041,0.265 -0.174,0.52 -0.358,0.719c-0.186,0.199 -0.422,0.343 -0.664,0.386s-0.443,-0.023 -0.57,-0.161c-0.129,-0.14 -0.182,-0.353 -0.131,-0.611s0.193,-0.513 0.381,-0.715c0.188,-0.204 0.418,-0.355 0.65,-0.403c0.234,-0.051 0.428,0.016 0.551,0.159c0.126,0.141 0.183,0.364 0.141,0.626zm0.382,-2.291a1.516,1.516 0 0 1 -0.359,0.724c-0.182,0.203 -0.41,0.352 -0.644,0.399c-0.231,0.052 -0.42,-0.009 -0.534,-0.144c-0.117,-0.136 -0.158,-0.347 -0.102,-0.604s0.201,-0.517 0.385,-0.724c0.186,-0.207 0.407,-0.366 0.628,-0.42c0.222,-0.056 0.397,0.004 0.513,0.145c0.112,0.14 0.161,0.36 0.113,0.624zm1.619,-0.297c0.037,-0.269 0.161,-0.525 0.331,-0.725c0.17,-0.201 0.383,-0.343 0.604,-0.375a0.56,0.56 0 0 1 0.535,0.208c0.127,0.157 0.193,0.394 0.168,0.664s-0.141,0.526 -0.31,0.722s-0.39,0.329 -0.621,0.358a0.605,0.605 0 0 1 -0.556,-0.203c-0.128,-0.153 -0.187,-0.382 -0.151,-0.649zm-0.299,2.327c0.031,-0.269 0.158,-0.522 0.334,-0.721c0.174,-0.197 0.398,-0.334 0.631,-0.363a0.622,0.622 0 0 1 0.57,0.216c0.138,0.161 0.211,0.397 0.189,0.668a1.25,1.25 0 0 1 -0.314,0.719a1.041,1.041 0 0 1 -0.646,0.35a0.677,0.677 0 0 1 -0.59,-0.215c-0.137,-0.158 -0.205,-0.387 -0.174,-0.654zm-0.281,2.537c0.027,-0.269 0.152,-0.521 0.334,-0.716a1.07,1.07 0 0 1 0.656,-0.354a0.705,0.705 0 0 1 0.604,0.229c0.148,0.164 0.23,0.399 0.211,0.672c-0.021,0.27 -0.139,0.522 -0.315,0.713a1.051,1.051 0 0 1 -0.669,0.34a0.745,0.745 0 0 1 -0.622,-0.225a0.828,0.828 0 0 1 -0.199,-0.659zm0.081,1.988c0.183,-0.19 0.424,-0.32 0.679,-0.341a0.767,0.767 0 0 1 0.635,0.236a0.893,0.893 0 0 1 0.231,0.676a1.138,1.138 0 0 1 -0.315,0.709a1.068,1.068 0 0 1 -0.688,0.33c-0.263,0.019 -0.491,-0.073 -0.649,-0.236s-0.244,-0.396 -0.222,-0.664a1.16,1.16 0 0 1 0.329,-0.71zm-0.217,2.915c0.186,-0.188 0.431,-0.312 0.696,-0.328a0.842,0.842 0 0 1 0.664,0.248c0.164,0.169 0.26,0.409 0.248,0.68a1.081,1.081 0 0 1 -1.017,1.024a0.848,0.848 0 0 1 -0.917,-0.92c0.017,-0.267 0.14,-0.517 0.326,-0.704zm-0.169,3.125c0.186,-0.185 0.438,-0.304 0.707,-0.314a0.908,0.908 0 0 1 0.687,0.262a0.918,0.918 0 0 1 0.271,0.685a1.056,1.056 0 0 1 -1.024,1.007a0.947,0.947 0 0 1 -0.695,-0.263a0.895,0.895 0 0 1 -0.265,-0.678a1.06,1.06 0 0 1 0.319,-0.699zm-0.108,3.287c0.187,-0.181 0.438,-0.294 0.716,-0.301c0.276,-0.006 0.525,0.1 0.702,0.272a0.943,0.943 0 0 1 0.284,0.689a0.974,0.974 0 0 1 -0.305,0.696a1.028,1.028 0 0 1 -1.422,0.016a0.915,0.915 0 0 1 -0.283,-0.683a0.99,0.99 0 0 1 0.308,-0.689zm-0.034,3.498a1.02,1.02 0 0 1 0.713,-0.284c0.278,0 0.529,0.108 0.713,0.287a0.975,0.975 0 0 1 0.299,0.692a0.948,0.948 0 0 1 -0.293,0.692a0.994,0.994 0 0 1 -0.707,0.279a1.057,1.057 0 0 1 -0.715,-0.295a0.957,0.957 0 0 1 -0.303,-0.688a0.933,0.933 0 0 1 0.293,-0.683zm-0.219,4.387a0.895,0.895 0 0 1 0.271,-0.679a0.965,0.965 0 0 1 0.701,-0.27c0.274,0.006 0.528,0.12 0.713,0.302c0.187,0.181 0.303,0.43 0.309,0.699c0.005,0.271 -0.102,0.514 -0.275,0.687s-0.418,0.273 -0.691,0.265a1.064,1.064 0 0 1 -0.711,-0.31a1.02,1.02 0 0 1 -0.317,-0.694zm0.426,3.192a0.894,0.894 0 0 1 0.678,-0.253a1.082,1.082 0 0 1 1.017,1.021a0.903,0.903 0 0 1 -0.251,0.681a0.849,0.849 0 0 1 -0.667,0.25a1.078,1.078 0 0 1 -0.698,-0.325a1.085,1.085 0 0 1 -0.325,-0.705a0.85,0.85 0 0 1 0.246,-0.669zm0.054,4.743a0.834,0.834 0 0 1 0.217,-0.662a0.78,0.78 0 0 1 0.642,-0.232c0.259,0.019 0.501,0.144 0.683,0.331s0.301,0.439 0.316,0.711a0.882,0.882 0 0 1 -0.227,0.675a0.74,0.74 0 0 1 -0.625,0.234a1.08,1.08 0 0 1 -0.676,-0.345a1.228,1.228 0 0 1 -0.33,-0.712zm0.469,4.475c-0.033,-0.27 0.035,-0.497 0.174,-0.653a0.677,0.677 0 0 1 0.59,-0.214c0.242,0.025 0.473,0.158 0.646,0.35c0.174,0.193 0.289,0.447 0.313,0.717c0.021,0.272 -0.052,0.508 -0.188,0.67a0.64,0.64 0 0 1 -0.571,0.218c-0.231,-0.031 -0.457,-0.168 -0.631,-0.364a1.324,1.324 0 0 1 -0.333,-0.724zm2.006,5.359a0.493,0.493 0 0 1 -0.499,0.199c-0.209,-0.037 -0.414,-0.181 -0.577,-0.383a1.58,1.58 0 0 1 -0.328,-0.729c-0.039,-0.268 0.01,-0.495 0.131,-0.646a0.532,0.532 0 0 1 0.522,-0.194c0.221,0.032 0.433,0.17 0.595,0.367c0.164,0.196 0.275,0.453 0.305,0.725c0.028,0.27 -0.031,0.504 -0.149,0.661zm1.73,-40.554a0.86,0.86 0 0 1 0.61,-0.318a0.728,0.728 0 0 1 0.591,0.27c0.149,0.176 0.241,0.422 0.238,0.696a1.092,1.092 0 0 1 -0.27,0.707c-0.162,0.184 -0.385,0.301 -0.627,0.31s-0.459,-0.093 -0.609,-0.265a0.979,0.979 0 0 1 -0.221,-0.686c0.016,-0.274 0.124,-0.527 0.288,-0.714zm-0.156,-1.658c0.015,-0.272 0.119,-0.526 0.275,-0.716c0.154,-0.188 0.36,-0.312 0.582,-0.324a0.662,0.662 0 0 1 0.557,0.27c0.144,0.174 0.229,0.42 0.225,0.694a1.144,1.144 0 0 1 -0.257,0.707a0.824,0.824 0 0 1 -0.601,0.312a0.709,0.709 0 0 1 -0.578,-0.26a0.982,0.982 0 0 1 -0.203,-0.683zm0.041,4.247a0.91,0.91 0 0 1 0.64,-0.314a0.795,0.795 0 0 1 0.622,0.272c0.156,0.176 0.255,0.422 0.25,0.697a1.069,1.069 0 0 1 -0.273,0.705a0.927,0.927 0 0 1 -0.654,0.307c-0.252,0.008 -0.479,-0.096 -0.637,-0.268s-0.25,-0.414 -0.238,-0.688c0.011,-0.272 0.12,-0.525 0.29,-0.711zm-0.101,2.754a0.947,0.947 0 0 1 0.666,-0.31a0.848,0.848 0 0 1 0.648,0.273c0.166,0.178 0.27,0.425 0.265,0.698a1.054,1.054 0 0 1 -0.284,0.706a0.965,0.965 0 0 1 -0.678,0.302a0.881,0.881 0 0 1 -0.662,-0.271a0.946,0.946 0 0 1 -0.253,-0.69c0.011,-0.273 0.124,-0.523 0.298,-0.708zm-0.087,2.969a0.98,0.98 0 0 1 0.687,-0.308a0.916,0.916 0 0 1 0.674,0.279a0.972,0.972 0 0 1 0.273,0.699a1.008,1.008 0 0 1 -0.983,1.005a0.938,0.938 0 0 1 -0.953,-0.969c0.007,-0.273 0.122,-0.523 0.302,-0.706zm-0.07,3.181c0.181,-0.182 0.43,-0.298 0.701,-0.301a0.955,0.955 0 0 1 0.694,0.282a0.998,0.998 0 0 1 -0.013,1.403c-0.18,0.182 -0.43,0.294 -0.706,0.297a0.968,0.968 0 0 1 -0.699,-0.282a0.945,0.945 0 0 1 -0.28,-0.692a1.04,1.04 0 0 1 0.303,-0.707zm-0.043,3.348c0.183,-0.18 0.434,-0.294 0.711,-0.296a0.994,0.994 0 0 1 0.707,0.287a0.98,0.98 0 0 1 -0.006,1.403a1.012,1.012 0 0 1 -0.711,0.293a1.015,1.015 0 0 1 -0.713,-0.287a0.965,0.965 0 0 1 -0.289,-0.698c0.003,-0.272 0.119,-0.523 0.301,-0.702zm-0.013,3.562c0.182,-0.18 0.434,-0.29 0.713,-0.29c0.276,0 0.528,0.11 0.711,0.29a0.978,0.978 0 0 1 0.004,1.403a1.024,1.024 0 0 1 -1.426,-0.005a0.978,0.978 0 0 1 -0.002,-1.398zm0.019,3.777a0.999,0.999 0 0 1 0.705,-0.284a1.012,1.012 0 0 1 1.006,0.998a0.974,0.974 0 0 1 -0.987,0.984a1.019,1.019 0 0 1 -0.704,-0.299a1.01,1.01 0 0 1 -0.302,-0.703a0.963,0.963 0 0 1 0.282,-0.696zm0.064,3.94a0.941,0.941 0 0 1 0.688,-0.278a1,1 0 0 1 0.695,0.302c0.178,0.182 0.287,0.43 0.291,0.703a1,1 0 0 1 -0.276,0.699a0.926,0.926 0 0 1 -0.679,0.281a0.99,0.99 0 0 1 -0.688,-0.309a1.052,1.052 0 0 1 -0.3,-0.706a0.927,0.927 0 0 1 0.269,-0.692zm0.109,4.155a0.87,0.87 0 0 1 0.655,-0.271a0.95,0.95 0 0 1 0.67,0.303c0.17,0.184 0.279,0.434 0.283,0.705c0.002,0.275 -0.099,0.523 -0.262,0.699a0.84,0.84 0 0 1 -0.643,0.274a0.938,0.938 0 0 1 -0.657,-0.312a1.104,1.104 0 0 1 -0.296,-0.71a0.953,0.953 0 0 1 0.25,-0.688zm0.172,4.569c0.151,-0.172 0.368,-0.271 0.61,-0.264s0.463,0.126 0.627,0.309c0.162,0.186 0.263,0.436 0.269,0.708a1.05,1.05 0 0 1 -0.239,0.695a0.726,0.726 0 0 1 -0.59,0.271a0.867,0.867 0 0 1 -0.611,-0.318a1.197,1.197 0 0 1 -0.285,-0.714a0.968,0.968 0 0 1 0.219,-0.687zm1.385,5.996c-0.134,0.174 -0.317,0.276 -0.524,0.265c-0.209,-0.011 -0.402,-0.137 -0.551,-0.326a1.334,1.334 0 0 1 -0.271,-0.718a0.987,0.987 0 0 1 0.188,-0.682a0.639,0.639 0 0 1 0.547,-0.257c0.221,0.011 0.422,0.13 0.569,0.313c0.148,0.186 0.242,0.436 0.248,0.708c0.008,0.277 -0.074,0.522 -0.206,0.697zm-0.038,-44.034c-0.148,0.186 -0.352,0.304 -0.572,0.314s-0.414,-0.087 -0.547,-0.256c-0.134,-0.169 -0.207,-0.409 -0.188,-0.683s0.12,-0.527 0.27,-0.718c0.148,-0.189 0.344,-0.313 0.551,-0.328c0.209,-0.012 0.393,0.091 0.525,0.266c0.131,0.175 0.213,0.42 0.208,0.694a1.193,1.193 0 0 1 -0.247,0.711zm4.031,18.737c0,0.272 -0.109,0.52 -0.291,0.698a1.006,1.006 0 0 1 -0.71,0.287c-0.278,0 -0.531,-0.112 -0.712,-0.293a0.972,0.972 0 0 1 -0.297,-0.702a0.988,0.988 0 0 1 0.999,-0.988a1.021,1.021 0 0 1 1.011,0.998zm-0.32,-2.65a0.977,0.977 0 0 1 -0.701,0.281a1.007,1.007 0 0 1 -0.705,-0.296a0.98,0.98 0 0 1 -0.295,-0.703a0.982,0.982 0 0 1 0.283,-0.701a0.953,0.953 0 0 1 0.693,-0.281a1.025,1.025 0 0 1 1.003,1.006a0.962,0.962 0 0 1 -0.278,0.694zm-0.059,-3.182a0.926,0.926 0 0 1 -0.684,0.276a0.986,0.986 0 0 1 -0.692,-0.3a1.02,1.02 0 0 1 -0.291,-0.706a0.982,0.982 0 0 1 0.276,-0.698a0.91,0.91 0 0 1 0.672,-0.279a0.994,0.994 0 0 1 0.688,0.306c0.177,0.185 0.292,0.435 0.3,0.707a0.94,0.94 0 0 1 -0.269,0.694zm-0.074,-2.971a0.872,0.872 0 0 1 -0.663,0.272a0.963,0.963 0 0 1 -0.676,-0.303a1.053,1.053 0 0 1 -0.283,-0.705a1.012,1.012 0 0 1 0.265,-0.699a0.855,0.855 0 0 1 0.649,-0.274c0.255,0.008 0.49,0.125 0.664,0.311a1.1,1.1 0 0 1 0.298,0.709a0.934,0.934 0 0 1 -0.254,0.689zm-0.09,-2.754a0.828,0.828 0 0 1 -0.639,0.269a0.923,0.923 0 0 1 -0.65,-0.306a1.065,1.065 0 0 1 -0.277,-0.706a1.01,1.01 0 0 1 0.252,-0.697a0.783,0.783 0 0 1 0.621,-0.271a0.922,0.922 0 0 1 0.641,0.312c0.168,0.188 0.279,0.438 0.291,0.711a0.95,0.95 0 0 1 -0.239,0.688zm-0.103,-2.588a0.76,0.76 0 0 1 -0.607,0.264a0.879,0.879 0 0 1 -0.628,-0.31a1.093,1.093 0 0 1 -0.267,-0.706a1.04,1.04 0 0 1 0.236,-0.695a0.732,0.732 0 0 1 0.592,-0.271a0.864,0.864 0 0 1 0.61,0.319c0.164,0.188 0.272,0.438 0.285,0.712a0.963,0.963 0 0 1 -0.221,0.687zm-1.322,-3.83a0.679,0.679 0 0 1 0.557,-0.27c0.224,0.012 0.429,0.135 0.583,0.323c0.155,0.188 0.262,0.443 0.277,0.717a0.98,0.98 0 0 1 -0.206,0.684a0.709,0.709 0 0 1 -0.578,0.261a0.85,0.85 0 0 1 -0.601,-0.312a1.143,1.143 0 0 1 -0.256,-0.707c-0.003,-0.274 0.083,-0.52 0.224,-0.696zm1.02,43.213c-0.147,0.188 -0.342,0.312 -0.551,0.325c-0.209,0.012 -0.394,-0.093 -0.524,-0.267a1.107,1.107 0 0 1 -0.209,-0.695c0.006,-0.272 0.099,-0.523 0.246,-0.709a0.787,0.787 0 0 1 0.57,-0.312a0.641,0.641 0 0 1 0.547,0.257c0.135,0.169 0.206,0.41 0.188,0.683a1.301,1.301 0 0 1 -0.267,0.718zm0.238,-4.535c-0.162,0.187 -0.377,0.309 -0.61,0.316a0.733,0.733 0 0 1 -0.592,-0.271a1.047,1.047 0 0 1 -0.236,-0.696c0.004,-0.272 0.104,-0.522 0.267,-0.707a0.884,0.884 0 0 1 0.628,-0.308c0.242,-0.008 0.458,0.093 0.607,0.264s0.236,0.412 0.223,0.688a1.2,1.2 0 0 1 -0.287,0.714zm0.189,-4.569a0.936,0.936 0 0 1 -0.658,0.312a0.846,0.846 0 0 1 -0.644,-0.275a1.016,1.016 0 0 1 -0.263,-0.698c0.006,-0.272 0.113,-0.521 0.284,-0.704a0.95,0.95 0 0 1 0.67,-0.305a0.866,0.866 0 0 1 0.655,0.271a0.936,0.936 0 0 1 0.248,0.688a1.117,1.117 0 0 1 -0.292,0.711zm0.121,-4.156a0.986,0.986 0 0 1 -0.687,0.307a0.924,0.924 0 0 1 -0.679,-0.281a0.982,0.982 0 0 1 -0.277,-0.699c0.003,-0.272 0.113,-0.521 0.292,-0.703a1,1 0 0 1 0.694,-0.3a0.945,0.945 0 0 1 0.688,0.277a0.95,0.95 0 0 1 0.271,0.691a1.055,1.055 0 0 1 -0.302,0.708zm0.075,-3.942a1.015,1.015 0 0 1 -0.704,0.299a0.96,0.96 0 0 1 -0.699,-0.284a0.971,0.971 0 0 1 -0.289,-0.7a0.998,0.998 0 0 1 0.297,-0.702c0.183,-0.182 0.433,-0.293 0.711,-0.296a0.98,0.98 0 0 1 0.701,0.284a0.94,0.94 0 0 1 0.285,0.696c-0.004,0.272 -0.12,0.521 -0.302,0.703zm0.036,-3.776c-0.184,0.18 -0.436,0.292 -0.714,0.293a0.996,0.996 0 0 1 -1.004,-0.988c0,-0.274 0.11,-0.522 0.296,-0.703c0.182,-0.18 0.434,-0.29 0.713,-0.29c0.277,0 0.527,0.11 0.712,0.29a0.974,0.974 0 0 1 -0.003,1.398zm4.312,-4.211a0.922,0.922 0 0 1 -0.285,0.684c-0.18,0.174 -0.432,0.278 -0.709,0.276a1.024,1.024 0 0 1 -1.018,-0.989a0.933,0.933 0 0 1 0.285,-0.688a0.968,0.968 0 0 1 0.702,-0.273c0.278,0.006 0.528,0.119 0.716,0.302c0.186,0.176 0.306,0.42 0.309,0.688zm-0.362,-2.606a0.946,0.946 0 0 1 -0.694,0.264a1.064,1.064 0 0 1 -0.712,-0.306a1.042,1.042 0 0 1 -0.312,-0.702a0.91,0.91 0 0 1 0.956,-0.946c0.274,0.011 0.525,0.129 0.711,0.314c0.187,0.183 0.309,0.43 0.317,0.697c0.01,0.27 -0.091,0.51 -0.266,0.679zm-0.14,-3.126a0.882,0.882 0 0 1 -0.674,0.25a1.087,1.087 0 0 1 -0.703,-0.317a1.07,1.07 0 0 1 -0.313,-0.706a0.9,0.9 0 0 1 0.25,-0.681a0.836,0.836 0 0 1 0.663,-0.249c0.266,0.017 0.512,0.142 0.697,0.328c0.185,0.188 0.309,0.438 0.324,0.705a0.852,0.852 0 0 1 -0.244,0.67zm-0.187,-2.916a0.808,0.808 0 0 1 -0.65,0.236c-0.262,-0.017 -0.504,-0.141 -0.687,-0.328s-0.304,-0.438 -0.317,-0.711a0.904,0.904 0 0 1 0.231,-0.676c0.157,-0.165 0.38,-0.258 0.636,-0.237s0.496,0.149 0.68,0.341c0.182,0.189 0.31,0.442 0.33,0.711a0.837,0.837 0 0 1 -0.223,0.664zm-0.227,-2.705a0.744,0.744 0 0 1 -0.621,0.226a1.04,1.04 0 0 1 -0.668,-0.34a1.174,1.174 0 0 1 -0.316,-0.714a0.896,0.896 0 0 1 0.211,-0.672a0.711,0.711 0 0 1 0.605,-0.229c0.244,0.026 0.478,0.159 0.656,0.354c0.18,0.192 0.305,0.447 0.332,0.716c0.028,0.267 -0.048,0.499 -0.199,0.659zm-0.255,-2.544a0.677,0.677 0 0 1 -0.59,0.215a1.025,1.025 0 0 1 -0.646,-0.35a1.218,1.218 0 0 1 -0.313,-0.718c-0.021,-0.271 0.053,-0.508 0.19,-0.668a0.628,0.628 0 0 1 0.569,-0.218c0.234,0.029 0.457,0.166 0.633,0.363c0.174,0.196 0.301,0.452 0.332,0.721c0.034,0.269 -0.036,0.499 -0.175,0.655zm-1.76,-3.206c-0.025,-0.271 0.041,-0.507 0.17,-0.666a0.554,0.554 0 0 1 0.533,-0.208c0.223,0.032 0.436,0.174 0.604,0.374c0.172,0.198 0.297,0.456 0.332,0.724c0.037,0.27 -0.023,0.497 -0.152,0.651a0.608,0.608 0 0 1 -0.559,0.203a1.006,1.006 0 0 1 -0.619,-0.357a1.297,1.297 0 0 1 -0.309,-0.721zm1.935,36.712a1.35,1.35 0 0 1 -0.332,0.721c-0.176,0.196 -0.397,0.334 -0.633,0.362a0.625,0.625 0 0 1 -0.569,-0.216c-0.14,-0.161 -0.213,-0.397 -0.19,-0.67a1.25,1.25 0 0 1 0.313,-0.718c0.173,-0.191 0.403,-0.321 0.646,-0.35a0.674,0.674 0 0 1 0.59,0.216c0.139,0.157 0.209,0.387 0.175,0.655zm0.132,-3.766a1.073,1.073 0 0 1 -0.673,0.344a0.747,0.747 0 0 1 -0.627,-0.234a0.898,0.898 0 0 1 -0.225,-0.675c0.018,-0.271 0.135,-0.522 0.316,-0.71c0.178,-0.188 0.42,-0.314 0.68,-0.333a0.8,0.8 0 0 1 0.645,0.233a0.834,0.834 0 0 1 0.215,0.662a1.182,1.182 0 0 1 -0.331,0.713zm0.308,-4.082a1.075,1.075 0 0 1 -0.697,0.326a0.847,0.847 0 0 1 -0.668,-0.251a0.899,0.899 0 0 1 -0.252,-0.681c0.01,-0.271 0.129,-0.521 0.313,-0.705c0.183,-0.185 0.433,-0.305 0.703,-0.316s0.512,0.085 0.678,0.252a0.865,0.865 0 0 1 0.248,0.673a1.11,1.11 0 0 1 -0.325,0.702zm0.187,-3.871c-0.187,0.182 -0.438,0.3 -0.711,0.309a0.921,0.921 0 0 1 -0.966,-0.953c0.006,-0.271 0.123,-0.52 0.308,-0.7s0.437,-0.294 0.714,-0.301a0.954,0.954 0 0 1 0.699,0.271a0.89,0.89 0 0 1 0.273,0.677a1.04,1.04 0 0 1 -0.317,0.697zm0.086,-3.71a1.048,1.048 0 0 1 -0.715,0.295a1.002,1.002 0 0 1 -0.707,-0.279a0.95,0.95 0 0 1 -0.291,-0.692a0.97,0.97 0 0 1 0.296,-0.692c0.184,-0.179 0.436,-0.287 0.714,-0.287c0.277,0 0.531,0.107 0.713,0.283a0.941,0.941 0 0 1 -0.01,1.372zm12.365,-3.798a0.678,0.678 0 0 1 -0.269,0.573a1.071,1.071 0 0 1 -0.703,0.223a1.168,1.168 0 0 1 -0.721,-0.269a0.865,0.865 0 0 1 -0.317,-0.615a0.712,0.712 0 0 1 0.26,-0.591a0.973,0.973 0 0 1 0.691,-0.207c0.276,0.019 0.533,0.127 0.727,0.287c0.194,0.161 0.319,0.372 0.332,0.599zm-0.259,-2.784a0.6,0.6 0 0 1 -0.222,0.556c-0.161,0.132 -0.401,0.203 -0.679,0.182a1.286,1.286 0 0 1 -0.729,-0.31a1.01,1.01 0 0 1 -0.355,-0.63a0.64,0.64 0 0 1 0.219,-0.574c0.158,-0.135 0.391,-0.201 0.663,-0.168c0.271,0.032 0.532,0.156 0.731,0.328c0.201,0.172 0.34,0.39 0.372,0.616zm-0.439,-2.646c0.046,0.227 -0.022,0.415 -0.173,0.538c-0.149,0.122 -0.379,0.181 -0.647,0.142a1.423,1.423 0 0 1 -0.729,-0.345c-0.2,-0.179 -0.346,-0.41 -0.387,-0.646c-0.039,-0.237 0.031,-0.436 0.176,-0.56c0.146,-0.126 0.365,-0.18 0.629,-0.132c0.266,0.049 0.524,0.188 0.729,0.368c0.206,0.183 0.356,0.407 0.402,0.635zm-0.573,-2.469c0.059,0.227 0.007,0.407 -0.128,0.521c-0.136,0.113 -0.351,0.157 -0.612,0.105c-0.263,-0.053 -0.52,-0.192 -0.725,-0.381s-0.357,-0.423 -0.411,-0.66c-0.056,-0.236 0,-0.429 0.13,-0.546c0.131,-0.114 0.337,-0.155 0.594,-0.095c0.254,0.062 0.512,0.215 0.721,0.404c0.208,0.194 0.368,0.424 0.431,0.652zm-0.677,-2.291c0.073,0.228 0.036,0.402 -0.083,0.508c-0.119,0.104 -0.32,0.137 -0.574,0.071a1.708,1.708 0 0 1 -0.715,-0.414a1.546,1.546 0 0 1 -0.434,-0.674c-0.065,-0.236 -0.026,-0.425 0.088,-0.531c0.113,-0.107 0.308,-0.137 0.552,-0.062c0.245,0.074 0.499,0.236 0.711,0.438c0.211,0.199 0.381,0.437 0.455,0.664zm-0.762,-2.153c0.088,0.229 0.066,0.398 -0.037,0.494c-0.104,0.096 -0.293,0.117 -0.535,0.04a1.875,1.875 0 0 1 -0.7,-0.445a1.812,1.812 0 0 1 -0.452,-0.686c-0.076,-0.235 -0.054,-0.418 0.047,-0.52c0.102,-0.102 0.277,-0.117 0.51,-0.031c0.233,0.088 0.479,0.263 0.692,0.471c0.21,0.208 0.389,0.449 0.475,0.677zm-3.263,8.397a0.862,0.862 0 0 1 0.673,-0.204c0.271,0.025 0.528,0.149 0.725,0.328c0.193,0.178 0.328,0.409 0.352,0.653c0.023,0.246 -0.068,0.459 -0.234,0.606s-0.406,0.23 -0.685,0.214a1.204,1.204 0 0 1 -0.724,-0.312a1.04,1.04 0 0 1 -0.34,-0.666a0.751,0.751 0 0 1 0.233,-0.619zm-0.534,-2.317c-0.027,-0.252 0.049,-0.468 0.2,-0.608c0.151,-0.143 0.377,-0.211 0.642,-0.175c0.266,0.037 0.521,0.173 0.72,0.359c0.198,0.185 0.341,0.422 0.378,0.668a0.654,0.654 0 0 1 -0.196,0.592c-0.155,0.141 -0.389,0.212 -0.657,0.183a1.26,1.26 0 0 1 -0.721,-0.34a1.148,1.148 0 0 1 -0.366,-0.679zm2.489,6.097a0.772,0.772 0 0 1 -0.274,0.619a1.025,1.025 0 0 1 -0.703,0.245a1.111,1.111 0 0 1 -0.719,-0.28a0.918,0.918 0 0 1 -0.313,-0.651a0.814,0.814 0 0 1 0.267,-0.637a0.96,0.96 0 0 1 0.697,-0.23c0.275,0.012 0.531,0.123 0.723,0.294a0.934,0.934 0 0 1 0.322,0.64zm-1.778,6.043c0.19,-0.173 0.445,-0.285 0.721,-0.301a0.957,0.957 0 0 1 0.693,0.227c0.17,0.151 0.268,0.364 0.248,0.61c-0.019,0.244 -0.148,0.474 -0.343,0.648s-0.451,0.294 -0.724,0.315a0.903,0.903 0 0 1 -0.684,-0.213a0.768,0.768 0 0 1 -0.244,-0.627a0.99,0.99 0 0 1 0.333,-0.659zm1.509,-2.216a1.126,1.126 0 0 1 -0.719,0.281a1.009,1.009 0 0 1 -0.705,-0.248a0.847,0.847 0 0 1 -0.283,-0.641a0.896,0.896 0 0 1 0.301,-0.647c0.186,-0.165 0.436,-0.266 0.713,-0.266s0.531,0.101 0.713,0.262c0.184,0.16 0.294,0.381 0.289,0.625a0.865,0.865 0 0 1 -0.309,0.634zm-0.864,-19.164c0.085,-0.095 0.245,-0.103 0.465,-0.004c0.224,0.099 0.463,0.283 0.677,0.499c0.211,0.216 0.396,0.463 0.492,0.691c0.1,0.227 0.094,0.393 0.004,0.479c-0.089,0.089 -0.261,0.1 -0.494,0.011a2.078,2.078 0 0 1 -0.684,-0.474a2.088,2.088 0 0 1 -0.467,-0.697c-0.086,-0.235 -0.079,-0.414 0.007,-0.505zm0.127,6.822c0.048,0.246 -0.017,0.448 -0.159,0.581c-0.143,0.131 -0.361,0.195 -0.623,0.153a1.357,1.357 0 0 1 -0.713,-0.368a1.28,1.28 0 0 1 -0.38,-0.688c-0.041,-0.253 0.024,-0.465 0.164,-0.6c0.139,-0.135 0.353,-0.194 0.606,-0.146c0.256,0.05 0.506,0.193 0.705,0.388c0.202,0.193 0.352,0.436 0.4,0.68zm-0.533,-2.469c0.06,0.245 0.009,0.443 -0.122,0.568c-0.129,0.126 -0.336,0.179 -0.591,0.128a1.411,1.411 0 0 1 -0.698,-0.395a1.407,1.407 0 0 1 -0.394,-0.697c-0.05,-0.253 0.004,-0.46 0.128,-0.59c0.127,-0.129 0.324,-0.179 0.568,-0.12c0.246,0.059 0.492,0.213 0.693,0.414c0.201,0.202 0.357,0.448 0.416,0.692zm-0.603,-2.32c0.07,0.245 0.031,0.439 -0.084,0.558c-0.115,0.119 -0.312,0.163 -0.555,0.103a1.495,1.495 0 0 1 -0.681,-0.417a1.558,1.558 0 0 1 -0.405,-0.706c-0.061,-0.252 -0.02,-0.456 0.094,-0.58c0.113,-0.122 0.297,-0.165 0.529,-0.098c0.234,0.067 0.473,0.231 0.674,0.438c0.201,0.207 0.36,0.457 0.428,0.702zm-2.284,10.656a0.929,0.929 0 0 1 -0.688,0.24a1.116,1.116 0 0 1 -0.719,-0.312a1.04,1.04 0 0 1 -0.326,-0.688a0.838,0.838 0 0 1 0.254,-0.658a0.863,0.863 0 0 1 0.676,-0.234c0.273,0.019 0.527,0.141 0.719,0.323c0.189,0.182 0.32,0.424 0.336,0.683a0.801,0.801 0 0 1 -0.252,0.646zm0.401,2.52a0.869,0.869 0 0 1 -0.279,0.657a1.013,1.013 0 0 1 -0.704,0.263a1.066,1.066 0 0 1 -0.72,-0.289a0.96,0.96 0 0 1 -0.307,-0.681a0.883,0.883 0 0 1 0.275,-0.666a0.95,0.95 0 0 1 0.699,-0.256c0.277,0.008 0.531,0.123 0.719,0.3c0.189,0.175 0.31,0.414 0.317,0.672zm-0.625,-5.541a0.852,0.852 0 0 1 -0.666,0.219a1.153,1.153 0 0 1 -0.711,-0.331a1.14,1.14 0 0 1 -0.34,-0.697a0.806,0.806 0 0 1 0.227,-0.65a0.806,0.806 0 0 1 0.652,-0.213c0.264,0.027 0.516,0.157 0.707,0.346c0.19,0.188 0.325,0.434 0.353,0.691a0.745,0.745 0 0 1 -0.222,0.635zm-0.111,-3.443c0.035,0.258 -0.04,0.478 -0.189,0.627a0.768,0.768 0 0 1 -0.637,0.196a1.172,1.172 0 0 1 -0.701,-0.352a1.197,1.197 0 0 1 -0.348,-0.704c-0.028,-0.263 0.049,-0.49 0.197,-0.642a0.704,0.704 0 0 1 0.619,-0.194c0.258,0.035 0.502,0.172 0.693,0.366c0.192,0.195 0.332,0.443 0.366,0.703zm-0.39,-2.606c0.041,0.258 -0.021,0.477 -0.16,0.619c-0.139,0.145 -0.354,0.215 -0.607,0.179a1.199,1.199 0 0 1 -0.682,-0.369a1.277,1.277 0 0 1 -0.355,-0.711c-0.033,-0.264 0.034,-0.488 0.172,-0.635c0.137,-0.147 0.34,-0.219 0.586,-0.177c0.244,0.041 0.483,0.188 0.672,0.386c0.189,0.198 0.331,0.449 0.374,0.708zm-0.442,-2.45c0.05,0.26 -0.004,0.473 -0.131,0.611s-0.33,0.204 -0.572,0.161s-0.479,-0.187 -0.663,-0.386s-0.317,-0.454 -0.358,-0.719c-0.041,-0.263 0.018,-0.484 0.143,-0.628c0.124,-0.145 0.316,-0.21 0.55,-0.16c0.233,0.049 0.464,0.2 0.652,0.404c0.185,0.206 0.326,0.459 0.379,0.717zm-2.107,-2.623c-0.047,-0.264 0.002,-0.482 0.114,-0.622c0.113,-0.141 0.292,-0.199 0.513,-0.145c0.221,0.054 0.443,0.213 0.629,0.42c0.184,0.207 0.326,0.466 0.385,0.724c0.058,0.259 0.017,0.47 -0.103,0.604c-0.114,0.135 -0.304,0.194 -0.534,0.144a1.241,1.241 0 0 1 -0.642,-0.4a1.493,1.493 0 0 1 -0.362,-0.725zm2.107,35.584c-0.051,0.26 -0.194,0.515 -0.381,0.719c-0.188,0.202 -0.42,0.354 -0.652,0.402s-0.426,-0.017 -0.55,-0.159c-0.125,-0.145 -0.185,-0.365 -0.144,-0.63c0.043,-0.264 0.176,-0.519 0.359,-0.719a1.25,1.25 0 0 1 0.663,-0.385c0.242,-0.042 0.446,0.021 0.573,0.161s0.182,0.354 0.132,0.611zm0.731,-4.319a1.284,1.284 0 0 1 -0.367,0.701a1.24,1.24 0 0 1 -0.689,0.371c-0.253,0.037 -0.466,-0.038 -0.609,-0.188c-0.146,-0.151 -0.222,-0.377 -0.188,-0.641c0.028,-0.265 0.159,-0.517 0.351,-0.707c0.188,-0.191 0.437,-0.324 0.694,-0.355a0.741,0.741 0 0 1 0.629,0.193c0.143,0.148 0.216,0.367 0.179,0.626zm0.123,-3.241a1.192,1.192 0 0 1 -0.709,0.343a0.805,0.805 0 0 1 -0.656,-0.217a0.822,0.822 0 0 1 -0.229,-0.651c0.021,-0.263 0.146,-0.511 0.339,-0.694c0.188,-0.187 0.44,-0.311 0.71,-0.329a0.85,0.85 0 0 1 0.67,0.222a0.757,0.757 0 0 1 0.227,0.638a1.17,1.17 0 0 1 -0.352,0.688zm0.302,-3.74c-0.19,0.181 -0.446,0.3 -0.719,0.314a0.898,0.898 0 0 1 -0.688,-0.242a0.848,0.848 0 0 1 -0.261,-0.66c0.012,-0.264 0.132,-0.507 0.32,-0.686a1.09,1.09 0 0 1 0.717,-0.305a0.967,0.967 0 0 1 0.696,0.248a0.828,0.828 0 0 1 0.261,0.65c-0.011,0.26 -0.138,0.5 -0.326,0.681zm0.137,-3.584a1.068,1.068 0 0 1 -0.717,0.288a0.991,0.991 0 0 1 -0.707,-0.267a0.904,0.904 0 0 1 -0.285,-0.67a0.931,0.931 0 0 1 0.3,-0.676a1.03,1.03 0 0 1 0.712,-0.278c0.278,0 0.529,0.105 0.713,0.273c0.182,0.17 0.293,0.403 0.289,0.662a0.921,0.921 0 0 1 -0.305,0.668zm0.296,-19.154a1.735,1.735 0 0 1 -0.413,-0.715c-0.066,-0.253 -0.038,-0.454 0.061,-0.571s0.269,-0.15 0.487,-0.075c0.222,0.076 0.453,0.248 0.651,0.461c0.195,0.215 0.361,0.468 0.438,0.713c0.08,0.245 0.055,0.436 -0.048,0.549c-0.103,0.112 -0.28,0.147 -0.513,0.078s-0.469,-0.232 -0.663,-0.44zm1.862,33.175c-0.068,0.245 -0.229,0.495 -0.428,0.704c-0.199,0.206 -0.438,0.369 -0.674,0.438c-0.232,0.066 -0.417,0.025 -0.529,-0.098c-0.112,-0.122 -0.153,-0.328 -0.094,-0.579c0.061,-0.254 0.209,-0.505 0.405,-0.708c0.194,-0.202 0.438,-0.355 0.681,-0.417s0.438,-0.018 0.555,0.102c0.118,0.12 0.155,0.314 0.084,0.558zm0.996,-4.094c-0.049,0.245 -0.201,0.487 -0.401,0.684c-0.201,0.196 -0.45,0.344 -0.705,0.396c-0.251,0.053 -0.46,-0.005 -0.595,-0.14c-0.137,-0.133 -0.198,-0.345 -0.155,-0.596a1.31,1.31 0 0 1 0.386,-0.69c0.196,-0.192 0.449,-0.332 0.709,-0.375c0.258,-0.045 0.477,0.015 0.614,0.146c0.14,0.128 0.199,0.331 0.147,0.575zm0.649,-3.724c-0.035,0.244 -0.176,0.48 -0.376,0.666a1.341,1.341 0 0 1 -0.72,0.354c-0.266,0.035 -0.492,-0.035 -0.645,-0.179a0.71,0.71 0 0 1 -0.207,-0.61c0.032,-0.255 0.166,-0.492 0.36,-0.677c0.195,-0.183 0.452,-0.309 0.722,-0.337c0.272,-0.028 0.504,0.045 0.662,0.188c0.157,0.142 0.237,0.35 0.204,0.595zm1.805,6.691c-0.086,0.228 -0.265,0.47 -0.477,0.678c-0.213,0.208 -0.459,0.383 -0.691,0.47c-0.232,0.088 -0.41,0.069 -0.511,-0.03c-0.101,-0.102 -0.123,-0.283 -0.047,-0.52a1.83,1.83 0 0 1 0.452,-0.687a1.86,1.86 0 0 1 0.699,-0.443c0.242,-0.078 0.432,-0.059 0.537,0.039c0.104,0.096 0.123,0.266 0.038,0.493zm1.263,-3.799c-0.065,0.229 -0.229,0.462 -0.439,0.653a1.75,1.75 0 0 1 -0.719,0.414c-0.253,0.065 -0.456,0.029 -0.582,-0.085s-0.176,-0.305 -0.119,-0.541c0.061,-0.237 0.213,-0.475 0.418,-0.665c0.207,-0.189 0.465,-0.335 0.725,-0.391c0.26,-0.058 0.472,-0.016 0.602,0.097c0.128,0.111 0.177,0.291 0.114,0.518zm0.819,-3.455c-0.045,0.227 -0.194,0.449 -0.399,0.632c-0.206,0.18 -0.466,0.315 -0.729,0.361c-0.267,0.045 -0.488,-0.009 -0.637,-0.135c-0.146,-0.126 -0.218,-0.325 -0.179,-0.562c0.038,-0.235 0.182,-0.467 0.382,-0.645c0.201,-0.178 0.46,-0.304 0.73,-0.34c0.271,-0.037 0.5,0.021 0.651,0.146a0.553,0.553 0 0 1 0.181,0.543zm0.127,-2.668a1.332,1.332 0 0 1 -0.729,0.312c-0.276,0.027 -0.513,-0.043 -0.679,-0.18a0.675,0.675 0 0 1 -0.229,-0.581a0.94,0.94 0 0 1 0.345,-0.625c0.191,-0.167 0.448,-0.277 0.727,-0.294c0.275,-0.02 0.52,0.059 0.688,0.194c0.168,0.138 0.26,0.333 0.236,0.562c-0.027,0.228 -0.164,0.445 -0.359,0.612zm0.242,-3.161a1.196,1.196 0 0 1 -0.722,0.267a1.02,1.02 0 0 1 -0.703,-0.227a0.757,0.757 0 0 1 -0.278,-0.599a0.811,0.811 0 0 1 0.303,-0.606c0.184,-0.154 0.436,-0.248 0.713,-0.248s0.531,0.093 0.712,0.242a0.72,0.72 0 0 1 0.287,0.579c-0.006,0.229 -0.125,0.436 -0.312,0.592z"/>
  </g>
 </g>
</svg>